<svg width="77" height="83" viewBox="0 0 77 83" fill="none" xmlns="http://www.w3.org/2000/svg">
<path d="M10 19.1429V19.8997C10 25.6857 13.0033 31.0751 17.9719 34.2041H43.0281C47.9967 31.0751 51 25.6857 51 19.8997V19.1429H10Z" fill="#C7A17A" stroke="black"/>
<path fill-rule="evenodd" clip-rule="evenodd" d="M68.2574 1.0694C72.5271 1.0694 75.9994 4.55583 75.9994 8.84293C75.9994 12.2205 73.8406 15.0929 70.8381 16.163V81.3946H6.32193C3.47548 81.3946 1.16064 79.0703 1.16064 76.2123C1.16064 73.3542 3.47548 71.0299 6.32193 71.0299H16.7877C15.6445 69.9079 14.8032 68.4828 14.3787 66.8866L10.7335 65.6688C8.09484 64.7852 6.32193 62.3145 6.32193 59.5225V51.4458C6.32193 48.6538 8.09355 46.1844 10.7323 45.3008L14.0639 44.1866V43.8238C14.0639 43.2525 14.1942 42.7135 14.4161 42.2251C12.7077 41.5786 11.4832 39.9319 11.4832 37.9937C11.4832 35.9324 12.8677 34.208 14.7452 33.6586C11.0394 30.1372 8.90258 25.2347 8.90258 19.9889V16.6165C4.6329 16.6165 1.16064 13.13 1.16064 8.84293C1.16064 4.55583 4.6329 1.0694 8.90258 1.0694H25.6768H38.58H55.3542H68.2574ZM39.8703 4.95616C39.8703 4.2423 39.291 3.66058 38.58 3.66058H25.6768C24.9658 3.66058 24.3865 4.2423 24.3865 4.95616C24.3865 5.67003 24.9658 6.25175 25.6768 6.25175H38.58C39.291 6.25175 39.8703 5.67003 39.8703 4.95616ZM3.74129 8.84293C3.74129 5.98486 6.05613 3.66058 8.90258 3.66058H22.0432C21.8987 4.06739 21.8058 4.50012 21.8058 4.95616C21.8058 7.09907 23.5426 8.84293 25.6768 8.84293H38.58C40.7142 8.84293 42.451 7.09907 42.451 4.95616C42.451 4.50012 42.3581 4.06739 42.2136 3.66058H55.3542C58.2006 3.66058 60.5155 5.98486 60.5155 8.84293C60.5155 11.701 58.2006 14.0253 55.3542 14.0253H8.90258C6.05613 14.0253 3.74129 11.701 3.74129 8.84293ZM55.3542 34.7547H60.5155V29.5724H55.3542V34.7547ZM55.3542 45.1194H60.5155V50.3018H55.3542V45.1194ZM55.3542 42.5283H60.5155V37.3459H55.3542V42.5283ZM52.7735 26.9812V34.7547V45.1194V52.893H60.5155V71.0312H44.8884C46.5658 69.3832 47.6123 67.09 47.6123 64.5533V43.8238C47.6123 43.2525 47.4819 42.7135 47.26 42.2251C48.9684 41.5773 50.1929 39.9319 50.1929 37.9937C50.1929 35.9337 48.8084 34.2093 46.931 33.6586C50.6368 30.1359 52.7735 25.2334 52.7735 19.9889V16.6165H55.3542H60.5155V26.9812H52.7735ZM50.1929 19.9889V16.6165H11.4832V19.9889C11.4832 21.0474 11.6148 22.08 11.8097 23.0944H17.9348C21.4923 23.0944 24.3865 26.0004 24.3865 29.5724V33.4591H43.0355C47.5168 30.4313 50.1929 25.4291 50.1929 19.9889ZM12.5181 25.6856H17.9348C20.069 25.6856 21.8058 27.4295 21.8058 29.5724V33.4591H18.6406C15.7929 31.5339 13.6806 28.8144 12.5181 25.6856ZM45.6768 36.0503H15.9994C14.9323 36.0503 14.0639 36.9222 14.0639 37.9937C14.0639 39.0651 14.9323 39.9371 15.9994 39.9371H45.6768C46.7439 39.9371 47.6123 39.0651 47.6123 37.9937C47.6123 36.9222 46.7439 36.0503 45.6768 36.0503ZM8.90258 59.5225V51.4458C8.90258 49.7706 9.96581 48.2884 11.549 47.7572L14.0639 46.9164V64.0532L11.549 63.2123C9.96581 62.6798 8.90258 61.1977 8.90258 59.5225ZM16.6445 43.8238V64.5533C16.6445 68.1252 19.5387 71.0312 23.0961 71.0312H38.58C42.1374 71.0312 45.0316 68.1252 45.0316 64.5533V43.8238C45.0316 43.1087 44.4523 42.5283 43.7413 42.5283H17.9348C17.2239 42.5283 16.6445 43.1087 16.6445 43.8238ZM68.2574 78.8047H6.32193C4.89871 78.8047 3.74129 77.6426 3.74129 76.2136C3.74129 74.7845 4.89871 73.6224 6.32193 73.6224H23.0961H38.58H63.0961V52.893V45.1194V34.7547V26.9812V16.6165H68.2574V78.8047ZM61.109 14.0253H68.2574C71.1039 14.0253 73.4187 11.701 73.4187 8.84293C73.4187 5.98486 71.1039 3.66058 68.2574 3.66058H61.109C62.34 5.03779 63.0961 6.85032 63.0961 8.84293C63.0961 10.8355 62.34 12.6481 61.109 14.0253Z" fill="#151D28"/>
<path d="M70.8381 16.163L70.6702 15.692L70.3381 15.8104V16.163H70.8381ZM70.8381 81.3946V81.8946H71.3381V81.3946H70.8381ZM16.7877 71.0299V71.5299H18.011L17.138 70.6731L16.7877 71.0299ZM14.3787 66.8866L14.8619 66.7581L14.7927 66.4978L14.5372 66.4124L14.3787 66.8866ZM10.7335 65.6688L10.5748 66.1429L10.5751 66.143L10.7335 65.6688ZM10.7323 45.3008L10.5737 44.8266L10.5735 44.8267L10.7323 45.3008ZM14.0639 44.1866L14.2225 44.6608L14.5639 44.5466V44.1866H14.0639ZM14.4161 42.2251L14.8713 42.4319L15.092 41.9463L14.5931 41.7574L14.4161 42.2251ZM14.7452 33.6586L14.8856 34.1385L15.7193 33.8946L15.0896 33.2962L14.7452 33.6586ZM8.90258 16.6165H9.40258V16.1165H8.90258V16.6165ZM22.0432 3.66058L22.5144 3.82795L22.7515 3.16058H22.0432V3.66058ZM42.2136 3.66058V3.16058H41.5053L41.7424 3.82795L42.2136 3.66058ZM60.5155 34.7547V35.2547H61.0155V34.7547H60.5155ZM55.3542 34.7547H54.8542V35.2547H55.3542V34.7547ZM60.5155 29.5724H61.0155V29.0724H60.5155V29.5724ZM55.3542 29.5724V29.0724H54.8542V29.5724H55.3542ZM60.5155 45.1194H61.0155V44.6194H60.5155V45.1194ZM55.3542 45.1194V44.6194H54.8542V45.1194H55.3542ZM60.5155 50.3018V50.8018H61.0155V50.3018H60.5155ZM55.3542 50.3018H54.8542V50.8018H55.3542V50.3018ZM60.5155 42.5283V43.0283H61.0155V42.5283H60.5155ZM55.3542 42.5283H54.8542V43.0283H55.3542V42.5283ZM60.5155 37.3459H61.0155V36.8459H60.5155V37.3459ZM55.3542 37.3459V36.8459H54.8542V37.3459H55.3542ZM52.7735 26.9812V26.4812H52.2735V26.9812H52.7735ZM52.7735 52.893H52.2735V53.393H52.7735V52.893ZM60.5155 52.893H61.0155V52.393H60.5155V52.893ZM60.5155 71.0312V71.5312H61.0155V71.0312H60.5155ZM44.8884 71.0312L44.538 70.6745L43.666 71.5312H44.8884V71.0312ZM47.26 42.2251L47.0827 41.7576L46.5843 41.9466L46.8048 42.4319L47.26 42.2251ZM46.931 33.6586L46.5865 33.2963L45.9575 33.8942L46.7902 34.1384L46.931 33.6586ZM52.7735 16.6165V16.1165H52.2735V16.6165H52.7735ZM60.5155 16.6165H61.0155V16.1165H60.5155V16.6165ZM60.5155 26.9812V27.4812H61.0155V26.9812H60.5155ZM50.1929 16.6165H50.6929V16.1165H50.1929V16.6165ZM11.4832 16.6165V16.1165H10.9832V16.6165H11.4832ZM11.8097 23.0944L11.3187 23.1887L11.3966 23.5944H11.8097V23.0944ZM24.3865 33.4591H23.8865V33.9591H24.3865V33.4591ZM43.0355 33.4591V33.9591H43.1886L43.3154 33.8734L43.0355 33.4591ZM12.5181 25.6856V25.1856H11.7989L12.0494 25.8597L12.5181 25.6856ZM21.8058 33.4591V33.9591H22.3058V33.4591H21.8058ZM18.6406 33.4591L18.3606 33.8733L18.4875 33.9591H18.6406V33.4591ZM11.549 47.7572L11.3905 47.2831L11.39 47.2832L11.549 47.7572ZM14.0639 46.9164H14.5639V46.222L13.9053 46.4422L14.0639 46.9164ZM14.0639 64.0532L13.9053 64.5274L14.5639 64.7476V64.0532H14.0639ZM11.549 63.2123L11.3896 63.6862L11.3905 63.6865L11.549 63.2123ZM68.2574 78.8047V79.3047H68.7574V78.8047H68.2574ZM63.0961 73.6224V74.1224H63.5961V73.6224H63.0961ZM63.0961 16.6165V16.1165H62.5961V16.6165H63.0961ZM68.2574 16.6165H68.7574V16.1165H68.2574V16.6165ZM61.109 14.0253L60.7362 13.6921L59.9915 14.5253H61.109V14.0253ZM61.109 3.66058V3.16058H59.9915L60.7362 3.99378L61.109 3.66058ZM76.4994 8.84293C76.4994 4.28161 72.8052 0.569397 68.2574 0.569397V1.5694C72.249 1.5694 75.4994 4.83005 75.4994 8.84293H76.4994ZM71.0059 16.634C74.201 15.4952 76.4994 12.4389 76.4994 8.84293H75.4994C75.4994 12.0021 73.4803 14.6905 70.6702 15.692L71.0059 16.634ZM71.3381 81.3946V16.163H70.3381V81.3946H71.3381ZM6.32193 81.8946H70.8381V80.8946H6.32193V81.8946ZM0.660645 76.2123C0.660645 79.3446 3.19742 81.8946 6.32193 81.8946V80.8946C3.75354 80.8946 1.66064 78.7961 1.66064 76.2123H0.660645ZM6.32193 70.5299C3.19742 70.5299 0.660645 73.08 0.660645 76.2123H1.66064C1.66064 73.6284 3.75354 71.5299 6.32193 71.5299V70.5299ZM16.7877 70.5299H6.32193V71.5299H16.7877V70.5299ZM13.8955 67.0151C14.3432 68.6986 15.2308 70.2025 16.4375 71.3868L17.138 70.6731C16.0582 69.6134 15.2632 68.267 14.8619 66.7581L13.8955 67.0151ZM10.5751 66.143L14.2203 67.3609L14.5372 66.4124L10.892 65.1945L10.5751 66.143ZM5.82193 59.5225C5.82193 62.5284 7.73121 65.1907 10.5748 66.1429L10.8923 65.1946C8.45847 64.3797 6.82193 62.1006 6.82193 59.5225H5.82193ZM5.82193 51.4458V59.5225H6.82193V51.4458H5.82193ZM10.5735 44.8267C7.72987 45.7789 5.82193 48.44 5.82193 51.4458H6.82193C6.82193 48.8676 8.45722 46.5899 10.891 45.7749L10.5735 44.8267ZM13.9053 43.7124L10.5737 44.8266L10.8908 45.775L14.2225 44.6608L13.9053 43.7124ZM13.5639 43.8238V44.1866H14.5639V43.8238H13.5639ZM13.9609 42.0182C13.712 42.5661 13.5639 43.1753 13.5639 43.8238H14.5639C14.5639 43.3297 14.6764 42.861 14.8713 42.4319L13.9609 42.0182ZM10.9832 37.9937C10.9832 40.1487 12.3448 41.9758 14.2392 42.6927L14.5931 41.7574C13.0707 41.1813 11.9832 39.7151 11.9832 37.9937H10.9832ZM14.6047 33.1788C12.5231 33.7878 10.9832 35.7012 10.9832 37.9937H11.9832C11.9832 36.1636 13.2123 34.6281 14.8856 34.1385L14.6047 33.1788ZM8.40258 19.9889C8.40258 25.372 10.5958 30.4055 14.4007 34.0211L15.0896 33.2962C11.4829 29.869 9.40258 25.0974 9.40258 19.9889H8.40258ZM8.40258 16.6165V19.9889H9.40258V16.6165H8.40258ZM0.660645 8.84293C0.660645 13.4043 4.35484 17.1165 8.90258 17.1165V16.1165C4.91096 16.1165 1.66064 12.8558 1.66064 8.84293H0.660645ZM8.90258 0.569397C4.35484 0.569397 0.660645 4.28161 0.660645 8.84293H1.66064C1.66064 4.83005 4.91096 1.5694 8.90258 1.5694V0.569397ZM25.6768 0.569397H8.90258V1.5694H25.6768V0.569397ZM38.58 0.569397H25.6768V1.5694H38.58V0.569397ZM55.3542 0.569397H38.58V1.5694H55.3542V0.569397ZM68.2574 0.569397H55.3542V1.5694H68.2574V0.569397ZM38.58 4.16058C39.0129 4.16058 39.3703 4.51651 39.3703 4.95616H40.3703C40.3703 3.96808 39.569 3.16058 38.58 3.16058V4.16058ZM25.6768 4.16058H38.58V3.16058H25.6768V4.16058ZM24.8865 4.95616C24.8865 4.51652 25.2439 4.16058 25.6768 4.16058V3.16058C24.6877 3.16058 23.8865 3.96807 23.8865 4.95616H24.8865ZM25.6768 5.75175C25.2439 5.75175 24.8865 5.39581 24.8865 4.95616H23.8865C23.8865 5.94425 24.6877 6.75175 25.6768 6.75175V5.75175ZM38.58 5.75175H25.6768V6.75175H38.58V5.75175ZM39.3703 4.95616C39.3703 5.39581 39.0129 5.75175 38.58 5.75175V6.75175C39.569 6.75175 40.3703 5.94425 40.3703 4.95616H39.3703ZM8.90258 3.16058C5.77807 3.16058 3.24129 5.71064 3.24129 8.84293H4.24129C4.24129 6.25908 6.33419 4.16058 8.90258 4.16058V3.16058ZM22.0432 3.16058H8.90258V4.16058H22.0432V3.16058ZM22.3058 4.95616C22.3058 4.56879 22.3846 4.19322 22.5144 3.82795L21.5721 3.4932C21.4128 3.94156 21.3058 4.43144 21.3058 4.95616H22.3058ZM25.6768 8.34293C23.8206 8.34293 22.3058 6.82485 22.3058 4.95616H21.3058C21.3058 7.37329 23.2645 9.34293 25.6768 9.34293V8.34293ZM38.58 8.34293H25.6768V9.34293H38.58V8.34293ZM41.951 4.95616C41.951 6.82485 40.4361 8.34293 38.58 8.34293V9.34293C40.9923 9.34293 42.951 7.37329 42.951 4.95616H41.951ZM41.7424 3.82795C41.8722 4.19322 41.951 4.56879 41.951 4.95616H42.951C42.951 4.43144 42.844 3.94156 42.6847 3.4932L41.7424 3.82795ZM55.3542 3.16058H42.2136V4.16058H55.3542V3.16058ZM61.0155 8.84293C61.0155 5.71064 58.4787 3.16058 55.3542 3.16058V4.16058C57.9226 4.16058 60.0155 6.25908 60.0155 8.84293H61.0155ZM55.3542 14.5253C58.4787 14.5253 61.0155 11.9752 61.0155 8.84293H60.0155C60.0155 11.4268 57.9226 13.5253 55.3542 13.5253V14.5253ZM8.90258 14.5253H55.3542V13.5253H8.90258V14.5253ZM3.24129 8.84293C3.24129 11.9752 5.77807 14.5253 8.90258 14.5253V13.5253C6.33419 13.5253 4.24129 11.4268 4.24129 8.84293H3.24129ZM60.5155 34.2547H55.3542V35.2547H60.5155V34.2547ZM60.0155 29.5724V34.7547H61.0155V29.5724H60.0155ZM55.3542 30.0724H60.5155V29.0724H55.3542V30.0724ZM55.8542 34.7547V29.5724H54.8542V34.7547H55.8542ZM60.5155 44.6194H55.3542V45.6194H60.5155V44.6194ZM61.0155 50.3018V45.1194H60.0155V50.3018H61.0155ZM55.3542 50.8018H60.5155V49.8018H55.3542V50.8018ZM54.8542 45.1194V50.3018H55.8542V45.1194H54.8542ZM60.5155 42.0283H55.3542V43.0283H60.5155V42.0283ZM60.0155 37.3459V42.5283H61.0155V37.3459H60.0155ZM55.3542 37.8459H60.5155V36.8459H55.3542V37.8459ZM55.8542 42.5283V37.3459H54.8542V42.5283H55.8542ZM53.2735 34.7547V26.9812H52.2735V34.7547H53.2735ZM53.2735 45.1194V34.7547H52.2735V45.1194H53.2735ZM53.2735 52.893V45.1194H52.2735V52.893H53.2735ZM60.5155 52.393H52.7735V53.393H60.5155V52.393ZM61.0155 71.0312V52.893H60.0155V71.0312H61.0155ZM44.8884 71.5312H60.5155V70.5312H44.8884V71.5312ZM47.1123 64.5533C47.1123 66.9496 46.1243 69.116 44.538 70.6745L45.2388 71.3879C47.0073 69.6504 48.1123 67.2305 48.1123 64.5533H47.1123ZM47.1123 43.8238V64.5533H48.1123V43.8238H47.1123ZM46.8048 42.4319C46.9997 42.861 47.1123 43.3297 47.1123 43.8238H48.1123C48.1123 43.1753 47.9641 42.5661 47.7152 42.0182L46.8048 42.4319ZM49.6929 37.9937C49.6929 39.7149 48.6056 41.1801 47.0827 41.7576L47.4373 42.6926C49.3311 41.9745 50.6929 40.1489 50.6929 37.9937H49.6929ZM46.7902 34.1384C48.4639 34.6293 49.6929 36.1651 49.6929 37.9937H50.6929C50.6929 35.7023 49.1529 33.7893 47.0717 33.1789L46.7902 34.1384ZM52.2735 19.9889C52.2735 25.0961 50.1932 29.8677 46.5865 33.2963L47.2755 34.021C51.0803 30.4042 53.2735 25.3707 53.2735 19.9889H52.2735ZM52.2735 16.6165V19.9889H53.2735V16.6165H52.2735ZM55.3542 16.1165H52.7735V17.1165H55.3542V16.1165ZM60.5155 16.1165H55.3542V17.1165H60.5155V16.1165ZM61.0155 26.9812V16.6165H60.0155V26.9812H61.0155ZM52.7735 27.4812H60.5155V26.4812H52.7735V27.4812ZM49.6929 16.6165V19.9889H50.6929V16.6165H49.6929ZM11.4832 17.1165H50.1929V16.1165H11.4832V17.1165ZM11.9832 19.9889V16.6165H10.9832V19.9889H11.9832ZM12.3007 23.0001C12.1097 22.0058 11.9832 21.0063 11.9832 19.9889H10.9832C10.9832 21.0885 11.1199 22.1541 11.3187 23.1887L12.3007 23.0001ZM17.9348 22.5944H11.8097V23.5944H17.9348V22.5944ZM24.8865 29.5724C24.8865 25.7262 21.7703 22.5944 17.9348 22.5944V23.5944C21.2142 23.5944 23.8865 26.2746 23.8865 29.5724H24.8865ZM24.8865 33.4591V29.5724H23.8865V33.4591H24.8865ZM43.0355 32.9591H24.3865V33.9591H43.0355V32.9591ZM49.6929 19.9889C49.6929 25.2623 47.0998 30.1096 42.7556 33.0448L43.3154 33.8734C47.9338 30.753 50.6929 25.5958 50.6929 19.9889H49.6929ZM17.9348 25.1856H12.5181V26.1856H17.9348V25.1856ZM22.3058 29.5724C22.3058 27.1552 20.3471 25.1856 17.9348 25.1856V26.1856C19.791 26.1856 21.3058 27.7037 21.3058 29.5724H22.3058ZM22.3058 33.4591V29.5724H21.3058V33.4591H22.3058ZM18.6406 33.9591H21.8058V32.9591H18.6406V33.9591ZM12.0494 25.8597C13.2481 29.0859 15.4261 31.8895 18.3606 33.8733L18.9207 33.0449C16.1597 31.1783 14.1132 28.543 12.9868 25.5114L12.0494 25.8597ZM15.9994 36.5503H45.6768V35.5503H15.9994V36.5503ZM14.5639 37.9937C14.5639 37.1965 15.2103 36.5503 15.9994 36.5503V35.5503C14.6542 35.5503 13.5639 36.648 13.5639 37.9937H14.5639ZM15.9994 39.4371C15.2103 39.4371 14.5639 38.7909 14.5639 37.9937H13.5639C13.5639 39.3394 14.6542 40.4371 15.9994 40.4371V39.4371ZM45.6768 39.4371H15.9994V40.4371H45.6768V39.4371ZM47.1123 37.9937C47.1123 38.7909 46.4658 39.4371 45.6768 39.4371V40.4371C47.0219 40.4371 48.1123 39.3394 48.1123 37.9937H47.1123ZM45.6768 36.5503C46.4658 36.5503 47.1123 37.1965 47.1123 37.9937H48.1123C48.1123 36.648 47.0219 35.5503 45.6768 35.5503V36.5503ZM8.40258 51.4458V59.5225H9.40258V51.4458H8.40258ZM11.39 47.2832C9.60213 47.8831 8.40258 49.5567 8.40258 51.4458H9.40258C9.40258 49.9845 10.3295 48.6938 11.7081 48.2313L11.39 47.2832ZM13.9053 46.4422L11.3905 47.2831L11.7076 48.2314L14.2224 47.3906L13.9053 46.4422ZM14.5639 64.0532V46.9164H13.5639V64.0532H14.5639ZM11.3905 63.6865L13.9053 64.5274L14.2224 63.579L11.7076 62.7381L11.3905 63.6865ZM8.40258 59.5225C8.40258 61.4116 9.60215 63.0851 11.3896 63.6862L11.7084 62.7384C10.3295 62.2746 9.40258 60.9838 9.40258 59.5225H8.40258ZM17.1445 64.5533V43.8238H16.1445V64.5533H17.1445ZM23.0961 70.5312C19.8168 70.5312 17.1445 67.851 17.1445 64.5533H16.1445C16.1445 68.3994 19.2606 71.5312 23.0961 71.5312V70.5312ZM38.58 70.5312H23.0961V71.5312H38.58V70.5312ZM44.5316 64.5533C44.5316 67.851 41.8594 70.5312 38.58 70.5312V71.5312C42.4155 71.5312 45.5316 68.3994 45.5316 64.5533H44.5316ZM44.5316 43.8238V64.5533H45.5316V43.8238H44.5316ZM43.7413 43.0283C44.1745 43.0283 44.5316 43.3832 44.5316 43.8238H45.5316C45.5316 42.8341 44.73 42.0283 43.7413 42.0283V43.0283ZM17.9348 43.0283H43.7413V42.0283H17.9348V43.0283ZM17.1445 43.8238C17.1445 43.3832 17.5016 43.0283 17.9348 43.0283V42.0283C16.9461 42.0283 16.1445 42.8341 16.1445 43.8238H17.1445ZM6.32193 79.3047H68.2574V78.3047H6.32193V79.3047ZM3.24129 76.2136C3.24129 77.9168 4.62065 79.3047 6.32193 79.3047V78.3047C5.17677 78.3047 4.24129 77.3684 4.24129 76.2136H3.24129ZM6.32193 73.1224C4.62065 73.1224 3.24129 74.5103 3.24129 76.2136H4.24129C4.24129 75.0588 5.17677 74.1224 6.32193 74.1224V73.1224ZM23.0961 73.1224H6.32193V74.1224H23.0961V73.1224ZM38.58 73.1224H23.0961V74.1224H38.58V73.1224ZM63.0961 73.1224H38.58V74.1224H63.0961V73.1224ZM62.5961 52.893V73.6224H63.5961V52.893H62.5961ZM62.5961 45.1194V52.893H63.5961V45.1194H62.5961ZM62.5961 34.7547V45.1194H63.5961V34.7547H62.5961ZM62.5961 26.9812V34.7547H63.5961V26.9812H62.5961ZM62.5961 16.6165V26.9812H63.5961V16.6165H62.5961ZM68.2574 16.1165H63.0961V17.1165H68.2574V16.1165ZM68.7574 78.8047V16.6165H67.7574V78.8047H68.7574ZM68.2574 13.5253H61.109V14.5253H68.2574V13.5253ZM72.9187 8.84293C72.9187 11.4268 70.8258 13.5253 68.2574 13.5253V14.5253C71.3819 14.5253 73.9187 11.9752 73.9187 8.84293H72.9187ZM68.2574 4.16058C70.8258 4.16058 72.9187 6.25908 72.9187 8.84293H73.9187C73.9187 5.71064 71.3819 3.16058 68.2574 3.16058V4.16058ZM61.109 4.16058H68.2574V3.16058H61.109V4.16058ZM63.5961 8.84293C63.5961 6.721 62.7904 4.79136 61.4818 3.32737L60.7362 3.99378C61.8896 5.28421 62.5961 6.97963 62.5961 8.84293H63.5961ZM61.4818 14.3585C62.7904 12.8945 63.5961 10.9649 63.5961 8.84293H62.5961C62.5961 10.7062 61.8896 12.4017 60.7362 13.6921L61.4818 14.3585Z" fill="black"/>
<rect x="39.8703" y="45.1194" width="2.58065" height="2.59118" fill="#333333" stroke="black"/>
<rect x="19.2252" y="45.1194" width="18.0645" height="2.59118" fill="#333333" stroke="black"/>
</svg>
